<?xml version="1.0" encoding="utf-8"?>
<!-- Generator: Adobe Illustrator 19.0.0, SVG Export Plug-In . SVG Version: 6.00 Build 0)  -->
<svg version="1.1" id="レイヤー_1" xmlns="http://www.w3.org/2000/svg" xmlns:xlink="http://www.w3.org/1999/xlink" x="0px"
	 y="0px" viewBox="0 0 72.2 73.4" style="enable-background:new 0 0 72.2 73.4;" xml:space="preserve">
<style type="text/css">
	.st0{fill:#007F0E;}
</style>
<g>
	<path class="st0" d="M71.5,13.4c1.2,1.2,0.6,2.1,0,3C65.7,17.5,59.9,19,54,19.5c-5.9,0.5-7.5,2.4-5.5,8.2c1,2.8,2.4,5.7,2.5,8.6
		c0.5,14.7-4.7,31.2-22.8,36c-0.9,0.3-1.8,0.8-2.7,1.2c-4.3,0-8.7,0-13,0c-5.5-2.5-9.5-6.5-12-12c-0.4-3.8-0.8-8.5,0-13
		c2.2-5.3,4.5-10.7,6.7-16c5.2-13,13.5-17.4,27.2-14.5c2.8,0.6,5.5,1.7,8.3,2.5c0.3-0.3,0.6-0.7,0.8-1c-1.2-1.3-2.1-3.1-3.6-3.8
		c-2.7-1.3-5.6-2.1-8.5-2.6c-8.1-1.5-9.7-4.4-5.9-11.5c2.7-1.8,6.3-1.9,10,0c3.8,4,7.7,8,11.8,12.2c0.3-0.2,1-0.5,1.7-1
		C59.4,5.4,62.1,5.5,71.5,13.4z M28.5,61.3c1.1,3.4,3,4.9,7.2,4.1c4.6-0.9,5.3-3.7,5.9-7.3c0.8-5.1,1.9-10.1,2.9-15.2
		c0.5-2.6,1-5.1-2.9-5.4c-3.3-0.3-6.4-0.7-6.9,4c-0.4,3.9-1.4,7.7-2,11.2c-2.5-2.3-4.7-5.9-6.8-5.8c-2.5,0.1-4.8,3.5-7.4,5.7
		c-0.3-3.7-0.4-7.7-0.8-11.6c-0.5-4.8-4.3-3-7-3.1c-2.9-0.1-3.8,1.4-3.2,4.1c1,4.9,1.8,9.8,2.7,14.7c1.7,9,1.9,9.3,10.9,8.1
		C23.4,64.5,25.6,62.7,28.5,61.3z M23.8,24.9c0.1,0.6,0.1,1.2,0.2,1.8c-2.2,0.6-4.5,0.9-6.5,1.8c-1.5,0.7-2.5,2.3-3.7,3.5
		c1.4,1.2,2.7,3.3,4.2,3.5c3.3,0.3,6.7-0.3,10.4-0.6c-0.4-4.8,1.8-10-4-12.1c-3.1-1.1-6.4-0.8-9.9,2.6C18.5,25.1,21.1,25,23.8,24.9z
		 M38.2,21.8c-0.5,0-1,0-1.6,0c0,4.3,0,8.6,0,12.9c0.5,0,1,0,1.6,0C38.2,30.4,38.2,26.1,38.2,21.8z M33.6,21.8c-0.6,0-1.3,0-1.9,0
		c-1.1,4.3-1.2,8.6,0.3,12.7c0.5,0,1.1,0,1.6,0C33.6,30.3,33.6,26.1,33.6,21.8z"/>
	<path class="st0" d="M24.8,32.1c-2.3,0.4-4.6,0.9-6.9,1.3c-0.2-0.8-0.4-1.6-0.5-2.5c2.3-0.5,4.5-1.1,6.8-1.6
		C24.4,30.3,24.6,31.2,24.8,32.1z"/>
</g>
</svg>
